<mxfile host="app.diagrams.net" modified="2023-11-15T14:23:12.742Z" agent="Mozilla/5.0 (Windows NT 10.0; Win64; x64) AppleWebKit/537.36 (KHTML, like Gecko) Chrome/119.0.0.0 Safari/537.36" etag="YQnJJJJJJJJJJJJJJJJJ" version="21.8.2" type="device">
  <diagram name="Page-1" id="c7558073-3199-34d8-9f00-42111426c3f3">
    <mxGraphModel dx="1050" dy="541" grid="1" gridSize="10" guides="1" tooltips="1" connect="1" arrows="1" fold="1" page="1" pageScale="1" pageWidth="826" pageHeight="1169" background="none" math="0" shadow="0">
      <root>
        <mxCell id="0" />
        <mxCell id="1" parent="0" />
        
        <!-- Title -->
        <mxCell id="110" value="ER DIAGRAM - ERP-AI SYSTEM (PART 3: INVENTORY)" style="text;spacingTop=-5;align=center;fontSize=20;fontStyle=1" parent="1" vertex="1">
          <mxGeometry x="160" y="20" width="500" height="40" as="geometry" />
        </mxCell>
        
        <!-- COMPANY Entity (simplified) -->
        <mxCell id="2" value="COMPANY" style="whiteSpace=wrap;align=center;verticalAlign=middle;fontStyle=1;strokeWidth=3;fillColor=#FFFFFF;fontSize=14;" parent="1" vertex="1">
          <mxGeometry x="340" y="80" width="120" height="60" as="geometry" />
        </mxCell>
        
        <!-- INVENTORY Entity -->
        <mxCell id="3" value="INVENTORY" style="whiteSpace=wrap;align=center;verticalAlign=middle;fontStyle=1;strokeWidth=3;fillColor=#FFFFFF;fontSize=14;" parent="1" vertex="1">
          <mxGeometry x="340" y="240" width="120" height="60" as="geometry" />
        </mxCell>
        
        <!-- Inventory Attributes -->
        <mxCell id="4" value="&lt;u&gt;ID&lt;/u&gt;" style="ellipse;whiteSpace=wrap;html=1;align=center;fontStyle=1;strokeWidth=2;fillColor=#FFFFFF;fontSize=12;" parent="1" vertex="1">
          <mxGeometry x="240" y="200" width="60" height="40" as="geometry" />
        </mxCell>
        <mxCell id="5" value="Name" style="ellipse;whiteSpace=wrap;html=1;align=center;fontStyle=1;strokeWidth=2;fillColor=#FFFFFF;fontSize=12;" parent="1" vertex="1">
          <mxGeometry x="310" y="180" width="60" height="40" as="geometry" />
        </mxCell>
        <mxCell id="6" value="SKU" style="ellipse;whiteSpace=wrap;html=1;align=center;fontStyle=1;strokeWidth=2;fillColor=#FFFFFF;fontSize=12;" parent="1" vertex="1">
          <mxGeometry x="380" y="180" width="60" height="40" as="geometry" />
        </mxCell>
        <mxCell id="7" value="Category" style="ellipse;whiteSpace=wrap;html=1;align=center;fontStyle=1;strokeWidth=2;fillColor=#FFFFFF;fontSize=12;" parent="1" vertex="1">
          <mxGeometry x="450" y="200" width="70" height="40" as="geometry" />
        </mxCell>
        <mxCell id="8" value="Quantity" style="ellipse;whiteSpace=wrap;html=1;align=center;fontStyle=1;strokeWidth=2;fillColor=#FFFFFF;fontSize=12;" parent="1" vertex="1">
          <mxGeometry x="490" y="250" width="70" height="40" as="geometry" />
        </mxCell>
        <mxCell id="9" value="Price" style="ellipse;whiteSpace=wrap;html=1;align=center;fontStyle=1;strokeWidth=2;fillColor=#FFFFFF;fontSize=12;" parent="1" vertex="1">
          <mxGeometry x="470" y="300" width="60" height="40" as="geometry" />
        </mxCell>
        <mxCell id="10" value="Status" style="ellipse;whiteSpace=wrap;html=1;align=center;fontStyle=1;strokeWidth=2;fillColor=#FFFFFF;fontSize=12;" parent="1" vertex="1">
          <mxGeometry x="400" y="320" width="60" height="40" as="geometry" />
        </mxCell>
        <mxCell id="11" value="Description" style="ellipse;whiteSpace=wrap;html=1;align=center;fontStyle=1;strokeWidth=2;fillColor=#FFFFFF;fontSize=12;" parent="1" vertex="1">
          <mxGeometry x="310" y="320" width="80" height="40" as="geometry" />
        </mxCell>
        <mxCell id="12" value="Reorder Point" style="ellipse;whiteSpace=wrap;html=1;align=center;fontStyle=1;strokeWidth=2;fillColor=#FFFFFF;fontSize=12;" parent="1" vertex="1">
          <mxGeometry x="220" y="300" width="90" height="40" as="geometry" />
        </mxCell>
        
        <!-- Connect Inventory to its attributes -->
        <mxCell id="13" value="" style="endArrow=none;html=1;rounded=0;exitX=0;exitY=0;exitDx=0;exitDy=0;entryX=1;entryY=1;entryDx=0;entryDy=0;" parent="1" source="3" target="4" edge="1">
          <mxGeometry relative="1" as="geometry" />
        </mxCell>
        <mxCell id="14" value="" style="endArrow=none;html=1;rounded=0;exitX=0.5;exitY=0;exitDx=0;exitDy=0;entryX=0.5;entryY=1;entryDx=0;entryDy=0;" parent="1" source="3" target="5" edge="1">
          <mxGeometry relative="1" as="geometry" />
        </mxCell>
        <mxCell id="15" value="" style="endArrow=none;html=1;rounded=0;exitX=0.5;exitY=0;exitDx=0;exitDy=0;entryX=0.5;entryY=1;entryDx=0;entryDy=0;" parent="1" source="3" target="6" edge="1">
          <mxGeometry relative="1" as="geometry" />
        </mxCell>
        <mxCell id="16" value="" style="endArrow=none;html=1;rounded=0;exitX=1;exitY=0;exitDx=0;exitDy=0;entryX=0;entryY=1;entryDx=0;entryDy=0;" parent="1" source="3" target="7" edge="1">
          <mxGeometry relative="1" as="geometry" />
        </mxCell>
        <mxCell id="17" value="" style="endArrow=none;html=1;rounded=0;exitX=1;exitY=0.5;exitDx=0;exitDy=0;entryX=0;entryY=0.5;entryDx=0;entryDy=0;" parent="1" source="3" target="8" edge="1">
          <mxGeometry relative="1" as="geometry" />
        </mxCell>
        <mxCell id="18" value="" style="endArrow=none;html=1;rounded=0;exitX=1;exitY=1;exitDx=0;exitDy=0;entryX=0;entryY=0;entryDx=0;entryDy=0;" parent="1" source="3" target="9" edge="1">
          <mxGeometry relative="1" as="geometry" />
        </mxCell>
        <mxCell id="19" value="" style="endArrow=none;html=1;rounded=0;exitX=0.75;exitY=1;exitDx=0;exitDy=0;entryX=0.5;entryY=0;entryDx=0;entryDy=0;" parent="1" source="3" target="10" edge="1">
          <mxGeometry relative="1" as="geometry" />
        </mxCell>
        <mxCell id="20" value="" style="endArrow=none;html=1;rounded=0;exitX=0.25;exitY=1;exitDx=0;exitDy=0;entryX=0.5;entryY=0;entryDx=0;entryDy=0;" parent="1" source="3" target="11" edge="1">
          <mxGeometry relative="1" as="geometry" />
        </mxCell>
        <mxCell id="21" value="" style="endArrow=none;html=1;rounded=0;exitX=0;exitY=1;exitDx=0;exitDy=0;entryX=1;entryY=0;entryDx=0;entryDy=0;" parent="1" source="3" target="12" edge="1">
          <mxGeometry relative="1" as="geometry" />
        </mxCell>
        
        <!-- Company-Inventory Relationship -->
        <mxCell id="22" value="CONTAINS" style="shape=rhombus;perimeter=rhombusPerimeter;whiteSpace=wrap;html=1;align=center;fontStyle=1;strokeWidth=2;fillColor=#FFFFFF;fontSize=12;" parent="1" vertex="1">
          <mxGeometry x="340" y="160" width="120" height="60" as="geometry" />
        </mxCell>
        
        <!-- Connect Company to Inventory through relationship -->
        <mxCell id="23" value="" style="endArrow=none;html=1;rounded=0;exitX=0.5;exitY=1;exitDx=0;exitDy=0;entryX=0.5;entryY=0;entryDx=0;entryDy=0;" parent="1" source="2" target="22" edge="1">
          <mxGeometry relative="1" as="geometry" />
        </mxCell>
        <mxCell id="24" value="" style="endArrow=none;html=1;rounded=0;exitX=0.5;exitY=1;exitDx=0;exitDy=0;entryX=0.5;entryY=0;entryDx=0;entryDy=0;" parent="1" source="22" target="3" edge="1">
          <mxGeometry relative="1" as="geometry" />
        </mxCell>
        
        <!-- Cardinality -->
        <mxCell id="25" value="1" style="text;html=1;strokeColor=none;fillColor=none;align=center;verticalAlign=middle;whiteSpace=wrap;rounded=0;fontSize=14;fontStyle=1" parent="1" vertex="1">
          <mxGeometry x="400" y="140" width="20" height="20" as="geometry" />
        </mxCell>
        <mxCell id="26" value="N" style="text;html=1;strokeColor=none;fillColor=none;align=center;verticalAlign=middle;whiteSpace=wrap;rounded=0;fontSize=14;fontStyle=1" parent="1" vertex="1">
          <mxGeometry x="400" y="220" width="20" height="20" as="geometry" />
        </mxCell>
        
        <!-- Note about relationship -->
        <mxCell id="27" value="One company contains many inventory items.&#xa;Each inventory item belongs to exactly one company." style="text;strokeColor=none;fillColor=none;align=left;verticalAlign=middle;spacingLeft=4;spacingRight=4;overflow=hidden;points=[[0,0.5],[1,0.5]];portConstraint=eastwest;rotatable=0;whiteSpace=wrap;html=1;fontSize=12;" parent="1" vertex="1">
          <mxGeometry x="480" y="160" width="280" height="40" as="geometry" />
        </mxCell>
      </root>
    </mxGraphModel>
  </diagram>
</mxfile>
